<svg preserveAspectRatio="none" width="100%" height="100%" overflow="visible" style="display: block;" viewBox="0 0 45 45" fill="none" xmlns="http://www.w3.org/2000/svg">
<g id="Icon">
<path id="Vector" d="M9.7572 14.0793C9.7572 13.3414 10.0504 12.6336 10.5722 12.1118C11.094 11.59 11.8017 11.2969 12.5397 11.2969H31.4603C32.1983 11.2969 32.906 11.59 33.4278 12.1118C33.9496 12.6336 34.2428 13.3414 34.2428 14.0793V25.2091C34.2428 25.9471 33.9496 26.6548 33.4278 27.1766C32.906 27.6984 32.1983 27.9916 31.4603 27.9916H18.661L12.5397 33V27.9916C11.8017 27.9916 11.094 27.6984 10.5722 27.1766C10.0504 26.6548 9.7572 25.9471 9.7572 25.2091V14.0793Z" stroke="var(--stroke-0, #1D1717)" stroke-width="2" stroke-linecap="round" stroke-linejoin="round"/>
<path id="Vector_2" d="M16.9916 21.3137C17.9136 21.3137 18.6611 20.5662 18.6611 19.6442C18.6611 18.7222 17.9136 17.9747 16.9916 17.9747C16.0696 17.9747 15.3221 18.7222 15.3221 19.6442C15.3221 20.5662 16.0696 21.3137 16.9916 21.3137Z" fill="var(--fill-0, #D64835)"/>
<path id="Vector_3" d="M22 21.3137C22.922 21.3137 23.6694 20.5662 23.6694 19.6442C23.6694 18.7222 22.922 17.9747 22 17.9747C21.078 17.9747 20.3305 18.7222 20.3305 19.6442C20.3305 20.5662 21.078 21.3137 22 21.3137Z" fill="var(--fill-0, #D64835)"/>
<path id="Vector_4" d="M27.0084 21.3137C27.9304 21.3137 28.6779 20.5662 28.6779 19.6442C28.6779 18.7222 27.9304 17.9747 27.0084 17.9747C26.0864 17.9747 25.3389 18.7222 25.3389 19.6442C25.3389 20.5662 26.0864 21.3137 27.0084 21.3137Z" fill="var(--fill-0, #D64835)"/>
</g>
</svg>
