<svg preserveAspectRatio="none" width="100%" height="100%" overflow="visible" style="display: block;" viewBox="0 0 56 56" fill="none" xmlns="http://www.w3.org/2000/svg">
<g id="icon">
<path id="Rectangle 862" d="M7 9C7 7.89543 7.89543 7 9 7H47C48.1046 7 49 7.89543 49 9V39C49 40.1046 48.1046 41 47 41H9C7.89543 41 7 40.1046 7 39V9Z" fill="var(--fill-0, white)" stroke="var(--stroke-0, #1D1717)" stroke-width="2"/>
<path id="Vector 29" d="M20.5 49C22.5 46.6 22.6667 42.6667 22.5 41H33.5C33.5 44.6 34.8333 47.8333 35.5 49H20.5Z" fill="var(--fill-0, white)" stroke="var(--stroke-0, #1D1717)" stroke-width="2" stroke-linejoin="round"/>
<line id="Line 66" x1="15" y1="49" x2="39" y2="49" stroke="var(--stroke-0, #1D1717)" stroke-width="2" stroke-linecap="round"/>
<line id="Line 67" x1="17" y1="49" x2="41" y2="49" stroke="var(--stroke-0, #1D1717)" stroke-width="2" stroke-linecap="round"/>
<g id="&#234;&#183;&#184;&#235;&#163;&#185; 79398">
<path id="&#237;&#140;&#168;&#236;&#138;&#164; 92964" d="M44.7111 4.00118H32.4859C30.9788 4.00328 29.5025 4.40186 28.2244 5.15171C26.9414 4.40165 25.4607 4.00315 23.9493 4.00118H11.725C11.4588 4.00118 11.2035 4.10047 11.0152 4.27719C10.8269 4.45392 10.7212 4.69361 10.7212 4.94354V27.1874C10.7243 27.4364 10.831 27.6744 11.0186 27.8505C11.2062 28.0266 11.4597 28.1268 11.725 28.1297H23.9493C25.2709 28.1285 26.5567 28.5322 27.6116 29.2794C27.7847 29.4062 27.998 29.4751 28.2176 29.4751C28.4372 29.4751 28.6505 29.4062 28.8236 29.2794C29.8795 28.5339 31.1647 28.1304 32.4859 28.1297H44.7111C44.9773 28.1297 45.2326 28.0304 45.4209 27.8537C45.6091 27.677 45.7149 27.4373 45.7149 27.1874C45.7149 27.1874 45.7149 5.95978 45.7149 4.94433C45.7149 3.92888 45.8639 4.00118 44.7111 4.00118Z" fill="var(--fill-0, #E83828)"/>
<g id="&#236;&#132;&#160; 1222">
</g>
<path id="&#236;&#132;&#160; 1223" d="M33.5737 11.1511H40.5725" stroke="var(--stroke-0, white)" stroke-width="2" stroke-linecap="round"/>
<path id="&#236;&#132;&#160; 1224" d="M33.5737 16.079H40.5725" stroke="var(--stroke-0, white)" stroke-width="2" stroke-linecap="round"/>
<path id="&#236;&#132;&#160; 1225" d="M33.5737 21.0068H40.5725" stroke="var(--stroke-0, white)" stroke-width="2" stroke-linecap="round"/>
<path id="&#236;&#132;&#160; 1223_2" d="M15.7998 11.1511H22.7985" stroke="var(--stroke-0, white)" stroke-width="2" stroke-linecap="round"/>
<path id="&#236;&#132;&#160; 1224_2" d="M15.7998 16.079H22.7985" stroke="var(--stroke-0, white)" stroke-width="2" stroke-linecap="round"/>
<path id="&#236;&#132;&#160; 1225_2" d="M15.7998 21.0068H22.7985" stroke="var(--stroke-0, white)" stroke-width="2" stroke-linecap="round"/>
</g>
</g>
</svg>
