<svg width="100%" height="100%" overflow="visible" style="display: block;" viewBox="0 0 18 18" fill="none" xmlns="http://www.w3.org/2000/svg">
<path id="Vector" d="M6.7033 9.76558C6.99602 10.2905 7.40822 10.7391 7.90655 11.0751C8.40487 11.4111 8.97531 11.625 9.57168 11.6996C10.1681 11.7741 10.7736 11.7072 11.3393 11.5042C11.905 11.3012 12.4149 10.9679 12.8279 10.5311L15.8901 7.46887C16.6008 6.75822 17 5.79438 17 4.78938C17 3.78437 16.6008 2.82053 15.8901 2.10988C15.1795 1.39924 14.2156 1 13.2106 1C12.2056 1 11.2418 1.39924 10.5311 2.10988L9.00001 3.64102M11.2967 8.23444C11.004 7.70953 10.5918 7.26092 10.0935 6.92493C9.59515 6.58894 9.02471 6.37501 8.42834 6.30046C7.83197 6.22592 7.22642 6.29285 6.66073 6.49584C6.09503 6.69882 5.58508 7.03216 5.17216 7.46887L2.10988 10.5311C1.39924 11.2418 1 12.2056 1 13.2106C1 14.2156 1.39924 15.1795 2.10988 15.8901C2.82053 16.6008 3.78437 17 4.78938 17C5.79438 17 6.75822 16.6008 7.46887 15.8901L9.00001 14.359" stroke="var(--stroke-0, #686868)" stroke-width="2" stroke-linecap="round" stroke-linejoin="round"/>
</svg>
