<svg xmlns="http://www.w3.org/2000/svg" width="32" height="32" viewBox="0 0 32 32" fill="none">
<g id="24icon">
<path id="Vector" d="M6 7H25V20H13L9 25V20H6V7Z" stroke="#1D1717" stroke-width="1.33333" stroke-linecap="round" stroke-linejoin="round"/>
<path id="Vector_2" d="M22 26.7C25.4242 26.7 28.2 23.9241 28.2 20.5C28.2 17.0759 25.4242 14.3 22 14.3C18.5759 14.3 15.8 17.0759 15.8 20.5C15.8 23.9241 18.5759 26.7 22 26.7Z" fill="#D64835"/>
<path id="Vector_3" d="M20.5333 19.0596C20.5333 17.9344 21.4335 17.1468 22.4461 17.3718C23.2338 17.4843 23.7964 18.1594 23.6838 18.9471C23.5713 20.0722 21.8835 20.0722 21.8835 21.535" stroke="white" stroke-width="1.33333" stroke-linecap="round" stroke-linejoin="round"/>
<path id="Vector_4" d="M21.8835 24.0667C22.2253 24.0667 22.5024 23.7896 22.5024 23.4478C22.5024 23.106 22.2253 22.829 21.8835 22.829C21.5417 22.829 21.2646 23.106 21.2646 23.4478C21.2646 23.7896 21.5417 24.0667 21.8835 24.0667Z" fill="white"/>
</g>
</svg>
